HIERARCHY
ROOT Hips
{
    OFFSET 0.000000 0.000000 0.000000
    CHANNELS 6 Xposition Yposition Zposition Zrotation Xrotation Yrotation
    JOINT Spine
    {
        OFFSET -0.000000 14.517291 0.000000
        CHANNELS 3 Zrotation Xrotation Yrotation
        JOINT Spine1
        {
            OFFSET -0.000000 37.558300 0.000000
            CHANNELS 3 Zrotation Xrotation Yrotation
            JOINT Neck
            {
                OFFSET -0.000000 37.404057 3.400369
                CHANNELS 3 Zrotation Xrotation Yrotation
                JOINT Head
                {
                    OFFSET -0.000000 24.785618 -3.540803
                    CHANNELS 3 Zrotation Xrotation Yrotation
                    End Site
                    {
                        OFFSET -0.000000 35.408028 0.000000
                    }
                }
            }
            JOINT LeftShoulder
            {
                OFFSET 6.992933 33.973492 -0.192664
                CHANNELS 3 Zrotation Xrotation Yrotation
                JOINT LeftArm
                {
                    OFFSET 21.527611 0.000000 0.000000
                    CHANNELS 3 Zrotation Xrotation Yrotation
                    JOINT LeftForeArm
                    {
                        OFFSET 56.353916 0.000000 0.000000
                        CHANNELS 3 Zrotation Xrotation Yrotation
                        JOINT LeftHand
                        {
                            OFFSET 47.774071 0.000000 0.000000
                            CHANNELS 3 Zrotation Xrotation Yrotation
                            End Site
                            {
                                OFFSET 26.556021 0.000000 0.000000
                            }
                        }
                    }
                }
            }
            JOINT RightShoulder
            {
                OFFSET -7.065357 33.973492 -0.192664
                CHANNELS 3 Zrotation Xrotation Yrotation
                JOINT RightArm
                {
                    OFFSET -21.527611 0.000000 0.000000
                    CHANNELS 3 Zrotation Xrotation Yrotation
                    JOINT RightForeArm
                    {
                        OFFSET -56.353916 0.000000 0.000000
                        CHANNELS 3 Zrotation Xrotation Yrotation
                        JOINT RightHand
                        {
                            OFFSET -47.774071 0.000000 0.000000
                            CHANNELS 3 Zrotation Xrotation Yrotation
                            End Site
                            {
                                OFFSET -26.556021 0.000000 0.000000
                            }
                        }
                    }
                }
            }
        }
    }
    JOINT LeftUpLeg
    {
        OFFSET 17.704014 0.000000 0.000000
        CHANNELS 3 Zrotation Xrotation Yrotation
        JOINT LeftLeg
        {
            OFFSET -0.000000 -81.181816 0.000000
            CHANNELS 3 Zrotation Xrotation Yrotation
            JOINT LeftFoot
            {
                OFFSET -0.000000 -62.821102 0.000000
                CHANNELS 3 Zrotation Xrotation Yrotation
                JOINT LeftToeBase
                {
                    OFFSET -0.000000 -11.507608 26.556021
                    CHANNELS 3 Zrotation Xrotation Yrotation
                    End Site
                    {
                        OFFSET -0.000000 0.000000 7.081605
                    }
                }
            }
        }
    }
    JOINT RightUpLeg
    {
        OFFSET -17.704014 0.000000 0.000000
        CHANNELS 3 Zrotation Xrotation Yrotation
        JOINT RightLeg
        {
            OFFSET -0.000000 -81.181816 0.000000
            CHANNELS 3 Zrotation Xrotation Yrotation
            JOINT RightFoot
            {
                OFFSET -0.000000 -62.821102 0.000000
                CHANNELS 3 Zrotation Xrotation Yrotation
                JOINT RightToeBase
                {
                    OFFSET -0.000000 -11.507608 26.556021
                    CHANNELS 3 Zrotation Xrotation Yrotation
                    End Site
                    {
                        OFFSET -0.000000 0.000000 7.081605
                    }
                }
            }
        }
    }
}
MOTION
Frames:    11
Frame Time:    0.008333
-8.025274    143.795990    -17.955273    -0.331111    -1.443983    -6.377069    0.450525    2.079243    8.052343    -0.295678    0.911598    2.689677    2.091229    1.853895    -3.147182    5.315314    -4.478589    -2.590081    -0.867948    6.575314    -7.379711    -43.338634    17.753439    -35.746868    3.258921    -32.759220    -124.225403    -4.668123    -27.159060    -7.403917    -2.063566    11.573447    1.253132    37.140209    11.308872    59.491135    -16.909662    -23.346893    71.563545    12.203878    -8.369534    30.119604    8.077961    -35.526058    -12.312494    -27.412436    51.980030    -8.769856    7.960775    -18.751150    40.804508    0.000000    0.000000    0.000000    -8.811198    10.611574    -23.719622    1.144312    40.162785    -4.107294    16.500288    -39.532001    4.271330    0.000000    0.000000    0.000000    
-8.032435    143.726501    -17.889006    -0.278835    -1.442133    -6.221510    0.396646    2.100241    8.087518    -0.294717    0.879481    2.701012    2.084931    1.823897    -3.223272    5.325378    -4.436504    -2.669125    -0.854886    6.559370    -7.399098    -43.297764    17.831888    -35.868595    3.250234    -32.738873    -124.306717    -4.688091    -27.141766    -7.401075    -2.034041    11.619435    1.228728    37.111359    11.260840    59.411621    -17.031490    -23.409985    71.478607    12.210885    -8.354918    30.209143    7.884382    -35.599682    -12.576381    -27.466936    52.078945    -8.680618    7.972829    -18.817720    40.806240    0.000000    0.000000    0.000000    -8.840979    10.646158    -23.416777    1.091725    40.249527    -4.005708    16.678213    -39.497040    4.506245    0.000000    0.000000    0.000000    
-8.041340    143.656097    -17.818733    -0.220778    -1.448510    -6.072448    0.326319    2.104470    8.125265    -0.268934    0.873334    2.712955    2.022251    1.823945    -3.310494    5.405738    -4.417552    -2.738016    -0.851020    6.549639    -7.411034    -43.251633    17.897182    -36.000336    3.208164    -32.703175    -124.406754    -4.705513    -27.162996    -7.392745    -2.027430    11.645114    1.264612    37.049431    11.257864    59.282795    -17.221441    -23.585825    71.364449    12.313825    -8.385219    30.364569    7.680768    -35.662289    -12.832154    -27.496162    52.182987    -8.627955    7.979548    -18.895641    40.830753    0.000000    0.000000    0.000000    -8.863779    10.695241    -23.107643    0.939965    40.318699    -3.727558    16.746548    -39.449001    4.767843    0.000000    0.000000    0.000000    
-8.053569    143.586823    -17.738026    -0.164703    -1.460082    -5.905467    0.264532    2.093590    8.153012    -0.255943    0.891971    2.721762    2.004598    1.827201    -3.395585    5.429293    -4.407922    -2.820403    -0.825406    6.536739    -7.427588    -43.217407    17.965717    -36.136494    3.161240    -32.674294    -124.522194    -4.728168    -27.198130    -7.377697    -2.008907    11.619102    1.306877    37.119087    11.134204    59.087406    -17.228878    -23.520393    71.370102    12.234923    -8.334145    30.321943    7.470339    -35.718418    -13.125351    -27.540279    52.284779    -8.600820    7.970446    -18.982046    40.876392    0.000000    0.000000    0.000000    -8.883731    10.765493    -22.713549    0.909789    40.364582    -3.558148    16.736269    -39.426830    4.874802    0.000000    0.000000    0.000000    
-8.062555    143.516632    -17.668600    -0.108384    -1.459351    -5.741233    0.213138    2.080635    8.182055    -0.255521    0.887093    2.731088    1.951542    1.871758    -3.491384    5.515070    -4.412413    -2.896699    -0.803985    6.537378    -7.439898    -43.162731    18.043571    -36.283066    3.127195    -32.675316    -124.619339    -4.816324    -27.239573    -7.411906    -1.993618    11.631366    1.336631    37.164841    11.016331    58.932404    -17.259371    -23.493290    71.315407    12.223728    -8.298192    30.321215    7.253421    -35.790184    -13.425237    -27.587080    52.378933    -8.515458    7.968650    -19.063421    40.892120    0.000000    0.000000    0.000000    -8.904062    10.810122    -22.271429    0.952106    40.426449    -3.516246    16.638159    -39.422890    4.963374    0.000000    0.000000    0.000000    
-8.081002    143.439316    -17.604965    -0.053794    -1.442284    -5.571804    0.149477    2.041954    8.201076    -0.229827    0.886938    2.736805    1.872584    1.904564    -3.567344    5.627053    -4.393266    -2.945499    -0.808241    6.527889    -7.442460    -43.094406    18.118093    -36.415806    3.097693    -32.648281    -124.730003    -4.819847    -27.249598    -7.384423    -2.003336    11.664453    1.361181    37.135773    10.969571    58.817173    -17.336626    -23.578642    71.213066    12.258797    -8.343625    30.355854    7.053025    -35.886940    -13.728152    -27.677961    52.474258    -8.438850    7.993859    -19.115719    40.942951    0.000000    0.000000    0.000000    -8.918903    10.830527    -21.730999    0.968104    40.523182    -3.365865    16.647223    -39.434963    5.022567    0.000000    0.000000    0.000000    
-8.109900    143.370117    -17.538422    -0.013034    -1.431457    -5.399000    0.087107    2.016108    8.222447    -0.198729    0.877459    2.743303    1.805550    1.947090    -3.651343    5.734509    -4.390567    -3.004226    -0.812290    6.503401    -7.441796    -43.024246    18.186596    -36.561649    2.984610    -32.590397    -124.923187    -4.756325    -27.371960    -7.164730    -2.004456    11.697089    1.355768    37.174351    10.872664    58.714058    -17.345209    -23.560278    71.130989    12.238084    -8.335169    30.417265    6.872985    -35.969280    -14.031889    -27.779222    52.557072    -8.358144    8.016778    -19.175436    40.999680    0.000000    0.000000    0.000000    -8.915988    10.865425    -21.256178    0.968270    40.614883    -3.231119    16.636728    -39.424213    5.098358    0.000000    0.000000    0.000000    
-8.147984    143.301254    -17.460737    0.008097    -1.432858    -5.190507    0.030461    1.970884    8.209414    -0.132495    0.896876    2.738129    1.715106    1.966985    -3.732668    5.844198    -4.329573    -3.059981    -0.844313    6.479836    -7.429968    -42.952751    18.246401    -36.693325    2.914936    -32.489784    -125.062180    -4.666331    -27.376965    -7.119979    -2.025693    11.678028    1.429297    37.214302    10.796856    58.509804    -17.328773    -23.594929    71.091194    12.247439    -8.382604    30.493761    6.693518    -36.041725    -14.373077    -27.885653    52.639694    -8.283185    8.025023    -19.251072    41.053078    0.000000    0.000000    0.000000    -8.893831    10.952616    -20.763348    1.024911    40.653400    -3.184990    16.740881    -39.372658    5.259774    0.000000    0.000000    0.000000    
-8.195409    143.233826    -17.391314    0.011471    -1.418768    -4.957306    0.036680    1.789389    8.158960    -0.116416    1.104065    2.721387    1.623626    2.024498    -3.804430    5.989904    -4.367603    -3.093739    -0.835972    6.425236    -7.441155    -42.843216    18.324316    -36.853642    2.869985    -32.513176    -125.169357    -4.620568    -27.470732    -7.098808    -2.079890    11.666113    1.548666    37.167618    10.776243    58.399601    -17.533400    -23.765047    70.843567    12.228543    -8.476114    30.521606    6.520544    -36.138321    -14.700395    -27.951422    52.743050    -8.256478    8.039515    -19.310549    41.104179    0.000000    0.000000    0.000000    -8.851187    11.030394    -20.224760    1.140447    40.708473    -3.176596    16.860807    -39.331184    5.405368    0.000000    0.000000    0.000000    
-8.247821    143.165009    -17.327396    0.011536    -1.402119    -4.702044    0.027918    1.727976    8.127237    -0.111355    1.131228    2.710727    1.537238    2.066559    -3.911441    6.153250    -4.338484    -3.165443    -0.836486    6.432195    -7.437364    -42.738689    18.407068    -37.017193    2.786043    -32.445957    -125.334808    -4.615491    -27.527639    -7.098366    -2.082400    11.661798    1.581535    37.197670    10.744271    58.225666    -17.614336    -23.806938    70.747078    12.194548    -8.504716    30.428728    6.346518    -36.237560    -15.027037    -28.009439    52.836536    -8.219224    8.067080    -19.363169    41.124001    0.000000    0.000000    0.000000    -8.795772    11.089660    -19.749483    1.206963    40.801094    -3.218169    16.967146    -39.260456    5.630490    0.000000    0.000000    0.000000    
-8.300323    143.099548    -17.256624    0.009906    -1.392955    -4.418788    -0.033062    2.131267    8.135516    -0.133053    0.424577    2.712576    1.526086    2.106301    -4.048355    6.225588    -4.042584    -3.308735    -0.917676    6.619609    -7.392870    -42.688461    18.498343    -37.060127    2.574979    -32.048351    -125.664574    -4.575902    -27.445887    -7.069268    -1.914066    11.901710    1.353533    37.299198    10.727670    58.059578    -17.477793    -23.622316    70.888481    12.135347    -8.396203    30.356041    6.155232    -36.338070    -15.371715    -28.057920    52.948151    -8.199411    8.066275    -19.421915    41.138641    0.000000    0.000000    0.000000    -8.741254    11.179825    -19.290556    1.175790    40.876617    -3.025123    17.210993    -39.159107    5.924315    0.000000    0.000000    0.000000    
